<svg width="319" height="229" viewBox="0 0 319 229" fill="none" xmlns="http://www.w3.org/2000/svg">
<path d="M46 51C46 45.4772 50.4772 41 56 41H82C87.5228 41 92 45.4772 92 51H46Z" fill="white"/>
<path d="M59 42C59 39.2386 61.2386 37 64 37H75C77.7614 37 80 39.2386 80 42H59Z" fill="white"/>
<path d="M124.501 10C124.501 10 127.179 5.03093 130.001 3C132.858 0.943603 138.501 0 138.501 0H212.001C212.001 0 217.211 0.390721 220.001 2C222.632 3.51794 225.501 7.5 225.501 7.5L249.502 51.5H103L124.501 10Z" fill="white"/>
<mask id="mask0_40_2" style="mask-type:alpha" maskUnits="userSpaceOnUse" x="0" y="51" width="319" height="178">
<path d="M293 51C307.359 51 319 62.6406 319 77V203C319 217.359 307.359 229 293 229H26C11.6406 229 0 217.359 0 203V77C2.38391e-06 62.6406 11.6406 51 26 51H293ZM159.5 67C118.907 67 86 99.9071 86 140.5C86 181.093 118.907 214 159.5 214C200.093 214 233 181.093 233 140.5C233 99.9071 200.093 67 159.5 67ZM159.5 94C185.181 94 206 114.819 206 140.5C206 166.181 185.181 187 159.5 187C133.819 187 113 166.181 113 140.5C113 114.819 133.819 94 159.5 94ZM286.5 61C275.73 61 267 69.7304 267 80.5C267 91.2696 275.73 100 286.5 100C297.27 100 306 91.2696 306 80.5C306 69.7304 297.27 61 286.5 61Z" fill="white"/>
</mask>
<g mask="url(#mask0_40_2)">
<path d="M0 77C0 62.6406 11.6406 51 26 51H293C307.359 51 319 62.6406 319 77V203C319 217.359 307.359 229 293 229H26C11.6406 229 0 217.359 0 203V77Z" fill="white"/>
</g>
</svg>
