<svg width="221" height="265" viewBox="0 0 221 265" fill="none" xmlns="http://www.w3.org/2000/svg">
<path d="M125.461 15C125.461 6.71573 118.745 -3.62117e-07 110.461 0C102.177 3.62117e-07 95.4609 6.71573 95.4609 15L110.461 15L125.461 15ZM99.8543 260.607C105.712 266.464 115.21 266.464 121.068 260.607L216.527 165.147C222.385 159.289 222.385 149.792 216.527 143.934C210.669 138.076 201.172 138.076 195.314 143.934L110.461 228.787L25.6081 143.934C19.7503 138.076 10.2528 138.076 4.39493 143.934C-1.46294 149.792 -1.46294 159.289 4.39493 165.147L99.8543 260.607ZM110.461 15L95.4609 15L95.4609 250L110.461 250L125.461 250L125.461 15L110.461 15Z" fill="white"/>
</svg>
