<svg width="1174" height="1175" viewBox="0 0 1174 1175" fill="none" xmlns="http://www.w3.org/2000/svg">
<path d="M105 173.5H734C878.422 173.5 995.5 290.578 995.5 435V1070C995.5 1102.31 969.309 1128.5 937 1128.5H105C72.6914 1128.5 46.5 1102.31 46.5 1070V232C46.5 199.691 72.6913 173.5 105 173.5Z" stroke="white" stroke-width="93"/>
<path d="M310 612V865.5H564M310 612L437 738.75M310 612L803.5 118.5M564 865.5L437 738.75M564 865.5L1057.25 372.25M437 738.75L839 344.5M803.5 118.5L886.5 35.5H1017.5L1138.5 156.5V291L1057.25 372.25M803.5 118.5L1057.25 372.25" stroke="white" stroke-width="71"/>
</svg>
