<svg width="235" height="235" viewBox="0 0 235 235" fill="none" xmlns="http://www.w3.org/2000/svg">
<circle cx="117.5" cy="117.5" r="117.5" fill="white"/>
<path d="M173 147C169.981 154.075 165.556 160.504 159.978 165.919C154.4 171.335 147.777 175.63 140.489 178.561C133.2 181.492 125.389 183 117.5 183C109.611 183 101.8 181.492 94.5111 178.561C87.2228 175.63 80.6004 171.335 75.0221 165.919C69.4439 160.504 65.0189 154.075 62 147" stroke="black" stroke-width="13"/>
<ellipse cx="159" cy="88.5" rx="16" ry="20.5" fill="black"/>
<path d="M51 99C51 95.717 51.7501 92.4661 53.2075 89.4329C54.6649 86.3998 56.801 83.6438 59.4939 81.3223C62.1868 79.0009 65.3837 77.1594 68.9022 75.903C72.4206 74.6466 76.1917 74 80 74C83.8083 74 87.5794 74.6466 91.0978 75.903C94.6163 77.1594 97.8132 79.0009 100.506 81.3223C103.199 83.6438 105.335 86.3998 106.793 89.4329C108.25 92.4661 109 95.717 109 99L97.387 99C97.387 97.0316 96.9373 95.0826 96.0635 93.264C95.1897 91.4455 93.909 89.7932 92.2945 88.4013C90.6799 87.0095 88.7632 85.9054 86.6537 85.1522C84.5442 84.3989 82.2833 84.0112 80 84.0112C77.7167 84.0112 75.4558 84.3989 73.3463 85.1522C71.2368 85.9054 69.3201 87.0095 67.7055 88.4013C66.091 89.7932 64.8103 91.4455 63.9365 93.264C63.0627 95.0826 62.613 97.0316 62.613 99L51 99Z" fill="black"/>
</svg>
