<svg width="223" height="327" viewBox="0 0 223 327" fill="none" xmlns="http://www.w3.org/2000/svg">
<rect x="47" width="129" height="221" rx="64.5" fill="white"/>
<path d="M9.74764e-06 158.5C7.1624e-06 188.072 11.7473 216.432 32.6576 237.342C53.5679 258.253 81.9284 270 111.5 270C141.072 270 169.432 258.253 190.342 237.342C211.253 216.432 223 188.072 223 158.5L192.726 158.5C192.726 180.042 184.168 200.703 168.935 215.935C153.703 231.168 133.042 239.726 111.5 239.726C89.9576 239.726 69.2975 231.168 54.0647 215.935C38.8319 200.703 30.2742 180.042 30.2742 158.5L9.74764e-06 158.5Z" fill="white"/>
<rect x="97" y="245" width="29" height="60" fill="white"/>
<rect x="38" y="327" width="27" height="147" transform="rotate(-90 38 327)" fill="white"/>
</svg>
